<?xml version="1.0" encoding="iso-8859-1"?>
<!-- Generator: Adobe Illustrator 19.0.0, SVG Export Plug-In . SVG Version: 6.00 Build 0)  -->
<svg version="1.1" id="Layer_1" xmlns="http://www.w3.org/2000/svg" xmlns:xlink="http://www.w3.org/1999/xlink" x="0px" y="0px"
	 viewBox="0 0 512 512" style="enable-background:new 0 0 512 512;" xml:space="preserve">
<path style="fill:#9ECCDB;" d="M511.994,256c0,87.768-44.161,165.215-111.486,211.322c-0.209,0.135-0.406,0.283-0.616,0.431
	c-30.91,21.046-66.672,35.516-105.279,41.341c-6.896,1.059-13.891,1.823-20.972,2.303c-5.825,0.406-11.711,0.603-17.635,0.603
	c-9.864,0-19.593-0.554-29.174-1.65c-2.956-0.332-5.899-0.727-8.83-1.158c-38.508-5.726-74.221-20.036-105.131-40.922
	c-0.468-0.32-0.924-0.64-1.379-0.948C44.167,421.215,0.006,343.768,0.006,256c0-141.386,114.614-256,256-256
	C397.38,0,511.994,114.614,511.994,256z"/>
<g>
	<path style="fill:#999999;" d="M400.508,467.322c-0.209,0.135-0.406,0.283-0.616,0.431
		c-36.439,24.814-79.627,40.479-126.251,43.644l-23.386-44.075H400.508z"/>
	<path style="fill:#999999;" d="M238.765,467.322l-11.933,43.028c-41.883-4.741-80.699-19.605-113.961-42.08
		c-0.468-0.32-0.924-0.64-1.379-0.948H238.765z"/>
</g>
<polygon style="fill:#CCCCCC;" points="337.136,440.697 299.096,467.322 282.68,467.322 238.765,467.322 212.917,467.322 
	174.876,440.697 "/>
<polygon style="fill:#E6E6E6;" points="363.748,422.065 337.136,440.697 174.876,440.697 174.864,440.697 148.252,422.065 
	232.879,422.065 278.148,422.065 "/>
<g>
	<path style="fill:#FFFFFF;" d="M268.296,52.202c0,7.069-5.726,12.795-12.783,12.795c-7.069,0-12.795-5.726-12.795-12.795
		s12.795-29.519,12.795-29.519S268.296,45.134,268.296,52.202z"/>
	<polygon style="fill:#FFFFFF;" points="278.148,422.065 232.879,422.065 241.709,91.105 242.004,79.825 269.011,79.825 
		269.306,91.105 	"/>
</g>
<g>
	<polygon style="fill:#F2F2F2;" points="242.004,79.821 232.879,422.065 245.572,422.065 247.117,79.821 	"/>
	<polygon style="fill:#F2F2F2;" points="269.306,91.105 241.709,91.105 242.004,79.825 269.011,79.825 	"/>
</g>
<g>
	<path style="fill:#FFFFFF;" d="M149.89,245.791c4.79,0,8.682,3.879,8.682,8.67c0,4.79-3.891,8.67-8.682,8.67
		c-3.202,0-51.759,0-54.69,0c-4.79,0-8.67-3.879-8.67-8.67c0-4.79,3.879-8.67,8.67-8.67c1.342,0,2.611,0.308,3.756,0.862
		c1.564-5.32,6.478-9.211,12.315-9.211c1.195,0,2.352,0.172,3.448,0.48c2.82-6.047,8.941-10.258,16.058-10.258
		c9.803,0,17.733,7.943,17.733,17.733c0,0.172-0.025,0.345-0.025,0.517C148.941,245.84,149.409,245.791,149.89,245.791z"/>
	<path style="fill:#FFFFFF;" d="M435.371,145.746c6.404,0,11.601,5.185,11.601,11.588s-5.197,11.588-11.601,11.588
		c-3.904,0-68.815,0-73.113,0c-6.404,0-11.588-5.185-11.588-11.588s5.185-11.588,11.588-11.588c0.653,0,1.268,0.062,1.884,0.16
		c0-0.222-0.037-0.456-0.037-0.677c0-13.091,10.615-23.706,23.706-23.706c9.519,0,17.696,5.616,21.477,13.706
		c1.465-0.406,3.005-0.653,4.606-0.653c7.795,0,14.371,5.209,16.465,12.315C431.886,146.164,433.573,145.746,435.371,145.746z"/>
	<polygon style="fill:#FFFFFF;" points="281.941,61.919 281.941,84.541 269.011,84.541 242.004,84.541 229.074,84.541 
		229.074,61.919 255.514,61.919 	"/>
</g>
<polygon style="fill:#F2F2F2;" points="239.587,61.919 239.587,84.541 237.016,84.541 231.645,84.541 229.074,84.541 
	229.074,61.919 234.331,61.919 "/>
<path style="fill:#FFFFFF;" d="M294.613,509.094c-6.896,1.059-13.891,1.823-20.972,2.303c-5.825,0.406-11.711,0.603-17.635,0.603
	c-9.864,0-19.593-0.554-29.174-1.65c-2.956-0.332-5.899-0.727-8.83-1.158l16.366-41.87h43.915L294.613,509.094z"/>
<g>
</g>
<g>
</g>
<g>
</g>
<g>
</g>
<g>
</g>
<g>
</g>
<g>
</g>
<g>
</g>
<g>
</g>
<g>
</g>
<g>
</g>
<g>
</g>
<g>
</g>
<g>
</g>
<g>
</g>
</svg>
