<svg id="Capa_1" enable-background="new 0 0 512 512" height="512" viewBox="0 0 512 512" width="512" xmlns="http://www.w3.org/2000/svg"><g><g><path d="m256.102 42.523-106.602 210.503 106.602 221.474h169.898v-301.597l33.5-9.877z" fill="#9ea2e3"/><path d="m256 42.463-203.5 120.563 27.338 8.06v303.414h176.264v-431.977z" fill="#8288cb"/></g><g><path d="m473.29 75.179-203.5-65.514h-26.62v77.177l12.933 12.933 189.608 61.074c4.584 1.476 9.23 2.178 13.8 2.177 19.014-.001 36.685-12.149 42.825-31.222 7.615-23.658-5.389-49.009-29.046-56.625z" fill="#efedff"/><path d="m269.79 9.665c-8.967-2.887-18.613-2.887-27.58 0l-203.5 65.514c-23.657 7.616-36.661 32.968-29.045 56.625s32.965 36.661 56.625 29.045l189.812-61.074.102-57.312c.001-12.302 4.888-24.099 13.586-32.798z" fill="#d4d4ff"/></g><g><path d="m459.5 163.026h-203.5l-12.83 4.126v51.748l12.83 4.126h203.5c16.569 0 30-13.431 30-30s-13.431-30-30-30z" fill="#efedff"/><path d="m256 163.026h-203.5c-16.569 0-30 13.431-30 30s13.431 30 30 30h203.5c-8.194-7.828-12.83-18.667-12.83-30s4.635-22.172 12.83-30z" fill="#d4d4ff"/></g><g><path d="m119.5 444.5-33.5 10-33.5-10v-161.474l33.5-10 33.5 10z" fill="#d4d4ff"/><g fill="#efedff"><path d="m119.5 223.026h-33.5-33.5c-16.569 0-30 13.431-30 30s13.431 30 30 30h33.5 33.5c16.569 0 30-13.431 30-30s-13.431-30-30-30z"/><path d="m119.5 444.5h-33.5-33.5c-16.569 0-30 13.431-30 30s13.431 30 30 30h33.5 33.5c16.569 0 30-13.431 30-30s-13.431-30-30-30z"/></g></g><g><path d="m459.5 444.5-33.5 10-33.5-10v-161.474l33.5-10 33.5 10z" fill="#d4d4ff"/><g fill="#efedff"><path d="m392.5 283.026h33.5 33.5c16.569 0 30-13.431 30-30s-13.431-30-30-30h-33.5-33.5c-16.569 0-30 13.431-30 30s13.431 30 30 30z"/><path d="m459.5 444.5h-33.5-33.5c-16.569 0-30 13.431-30 30s13.431 30 30 30h33.5 33.5c16.569 0 30-13.431 30-30s-13.431-30-30-30z"/></g></g><g><path d="m256 328.026-19.911 9.266v96.47l49.911 40.738h45v-71.474c0-41.422-33.579-75-75-75z" fill="#efedff"/><path d="m243.166 350.526c0-9.241 4.879-17.796 12.834-22.5-41.421 0-75 33.579-75 75v71.474h45l30-101.475c-7.954-4.704-12.834-13.258-12.834-22.499z" fill="#d4d4ff"/><path d="m226 474.5v-71.475c0-16.542 13.458-30 30-30s30 13.458 30 30v71.475z" fill="#676fb2"/></g><g><g><g><ellipse cx="176.443" cy="307.529" fill="#ff8e9e" rx="29.355" ry="23.377"/></g><g><ellipse cx="335.556" cy="307.529" fill="#ff8e9e" rx="29.355" ry="23.377"/></g></g></g><g><path d="m193.551 265.525c-4.142 0-7.5 3.357-7.5 7.5v12c0 4.143 3.358 7.5 7.5 7.5s7.5-3.357 7.5-7.5v-12c0-4.142-3.358-7.5-7.5-7.5z"/><path d="m318.448 265.525c-4.142 0-7.5 3.357-7.5 7.5v12c0 4.143 3.358 7.5 7.5 7.5s7.5-3.357 7.5-7.5v-12c0-4.142-3.358-7.5-7.5-7.5z"/><path d="m277.392 279.014c-3.123-2.721-7.86-2.396-10.582.727-5.724 6.57-15.9 6.566-21.62 0-2.722-3.122-7.458-3.447-10.582-.727-3.123 2.722-3.448 7.459-.727 10.582 11.706 13.431 32.544 13.416 44.237 0 2.721-3.123 2.396-7.861-.726-10.582z"/><path d="m509.474 134.103c1.736-5.391 2.526-10.861 2.526-16.239 0-22.085-14.246-42.687-36.411-49.823 0 0 0 0 0-.001l-203.5-65.514c-5.263-1.694-10.676-2.526-16.089-2.526s-10.826.832-16.088 2.525l-203.5 65.515c-22.289 7.175-36.412 27.406-36.412 50.19 0 5.26.83 10.604 2.526 15.871 4.341 13.485 13.69 24.224 25.608 30.454-8.031 6.883-13.134 17.089-13.134 28.47 0 12.254 5.909 23.153 15.026 30-9.117 6.847-15.026 17.746-15.026 30 0 18.11 12.904 33.261 30 36.745v6.255c0 4.143 3.358 7.5 7.5 7.5s7.5-3.357 7.5-7.5v-5.5h52v146.475h-52v-110.975c0-4.143-3.358-7.5-7.5-7.5s-7.5 3.357-7.5 7.5v111.729c-17.096 3.484-30 18.635-30 36.745 0 20.678 16.822 37.5 37.5 37.5h67c18.11 0 33.261-12.904 36.745-30h199.509c3.484 17.096 18.635 30 36.745 30h67c20.678 0 37.5-16.822 37.5-37.5 0-18.11-12.904-33.261-30-36.745v-6.254c0-4.143-3.357-7.5-7.5-7.5s-7.5 3.357-7.5 7.5v5.5h-52v-146.475h52v110.975c0 4.143 3.357 7.5 7.5 7.5s7.5-3.357 7.5-7.5v-111.729c17.096-3.484 30-18.635 30-36.745 0-12.254-5.909-23.153-15.026-30 9.117-6.847 15.026-17.746 15.026-30 0-11.38-5.102-21.585-13.131-28.468 11.916-6.232 21.265-16.972 25.606-30.455zm-479.474 118.922c0-12.406 10.093-22.5 22.5-22.5h67c12.407 0 22.5 10.094 22.5 22.5s-10.093 22.5-22.5 22.5h-67c-12.407 0-22.5-10.093-22.5-22.5zm89.5 243.975h-67c-12.407 0-22.5-10.094-22.5-22.5s10.093-22.5 22.5-22.5h67c12.407 0 22.5 10.094 22.5 22.5s-10.093 22.5-22.5 22.5zm204-30h-30v-63.975c0-20.678-16.822-37.5-37.5-37.5s-37.5 16.822-37.5 37.5v63.975h-30v-63.975c0-37.22 30.28-67.5 67.5-67.5s67.5 30.28 67.5 67.5zm-45 0h-45v-63.975c0-12.406 10.093-22.5 22.5-22.5s22.5 10.094 22.5 22.5zm77.255 0h-17.255v-63.975c0-45.49-37.009-82.5-82.5-82.5s-82.5 37.01-82.5 82.5v63.975h-17.255c-2.99-14.672-14.573-26.255-29.245-29.245v-147.984c26.888-5.48 39.014-37.269 22.48-59.245h213.04c-16.563 22.014-4.358 53.776 22.48 59.245v147.984c-14.672 2.99-26.255 14.573-29.245 29.245zm126.245 7.5c0 12.406-10.094 22.5-22.5 22.5h-67c-12.406 0-22.5-10.094-22.5-22.5s10.094-22.5 22.5-22.5h67c12.406 0 22.5 10.094 22.5 22.5zm0-221.475c0 12.406-10.094 22.5-22.5 22.5h-67c-12.406 0-22.5-10.094-22.5-22.5s10.094-22.5 22.5-22.5h67c12.406 0 22.5 10.094 22.5 22.5zm-22.5-37.5h-407c-12.407 0-22.5-10.094-22.5-22.5s10.093-22.5 22.5-22.5h407c12.406 0 22.5 10.094 22.5 22.5s-10.094 22.5-22.5 22.5zm-352.179-60 148.781-47.872 148.619 47.872zm340.689-1.815-189.608-61.074c-.748-.241-1.523-.361-2.299-.361-.775 0-1.55.12-2.297.36l-189.815 61.075c-19.377 6.236-40.71-4.083-47.187-24.205-6.352-19.729 4.473-40.834 24.204-47.188l203.5-65.514c7.518-2.42 15.466-2.42 22.983 0l203.5 65.514c19.73 6.353 30.558 27.457 24.204 47.188-6.405 19.899-27.556 30.521-47.185 24.205z"/></g></g></svg>